<?xml version="1.0" encoding="UTF-8" standalone="no"?>
<svg viewBox="0 0 48 48" version="1.1" xmlns="http://www.w3.org/2000/svg" xmlns:xlink="http://www.w3.org/1999/xlink">
    <defs></defs>
    <g id="Anna" stroke="none" stroke-width="1" fill="none" fill-rule="evenodd">
        <g id="icon-slug">
            <g id="slug" transform="translate(6.000000, 6.000000)">
                <g id="Group" transform="translate(0.000000, 0.972973)">
                    <path d="M29.1891892,5.83978378 L34.0540541,0.00194594595" id="Shape" stroke="#795548" stroke-width="2"></path>
                    <path d="M26.2702703,6.81275676 L21.4054054,0.00194594595" id="Shape" stroke="#795548" stroke-width="2"></path>
                    <path d="M31.0894054,7.69232432 L31.0767568,7.69427027 C30.8023784,6.08983784 29.412973,4.86486486 27.7297297,4.86486486 C25.848973,4.86486486 24.3243243,6.38951351 24.3243243,8.27027027 C24.3243243,8.47848649 24.3496216,8.68086486 24.3856216,8.87837838 L24.3856216,8.87837838 L24.3865946,8.88421622 C24.3943784,8.92508108 24.4002162,8.96497297 24.408973,9.00486486 C27.2607568,23.4690811 20.4100541,24.3282162 12.6486486,25.2992432 C1.85448649,26.6477838 0,32.1100541 0,32.1100541 C0,32.1100541 0,34.056 1.94594595,34.056 C3.89189189,34.056 21.4054054,34.0540541 21.4054054,34.0540541 C21.4054054,34.0540541 33.0810811,34.056 33.0810811,22.3803243 C33.0810811,15.5695135 32.0623784,14.5041081 31.0894054,7.69232432 L31.0894054,7.69232432 Z" id="Shape" fill="#795548"></path>
                </g>
                <path d="M31.140973,9.00389189 C30.8471351,8.29167568 30.132,7.78378378 29.1891892,7.78378378 C28.115027,7.78378378 27.2432432,8.65556757 27.2432432,9.72972973 C27.2432432,10.044 29.6620541,22.4056216 27.2432432,27.2432432 C24.3243243,33.0810811 20.4324324,33.0810811 18.4864865,33.0810811 L0,33.0810811 L0,33.083027 C0,33.083027 0,35.028973 1.94594595,35.028973 C3.89189189,35.028973 21.4054054,35.027027 21.4054054,35.027027 C21.4054054,35.027027 34.0540541,36 34.0540541,24.3243243 C34.0540541,17.6322162 32.1081081,16.5405405 31.140973,9.00389189 L31.140973,9.00389189 Z" id="Shape" fill="#BCAAA4"></path>
                <g id="Group" transform="translate(20.432432, 0.000000)" fill="#5D4037">
                    <ellipse id="Oval" cx="12.6486486" cy="1.94789189" rx="1.94594595" ry="1.94594595"></ellipse>
                    <ellipse id="Oval" cx="1.94594595" cy="1.94789189" rx="1.94594595" ry="1.94594595"></ellipse>
                </g>
            </g>
        </g>
    </g>
</svg>
